M48
;DRILL file {KiCad 4.0.7} date 01/06/19 19:56:30
;FORMAT={3:3/ absolute / metric / suppress trailing zeros}
FMAT,2
METRIC,LZ
T1C0.400
T2C0.500
T3C0.700
T4C1.000
%
G90
G05
M71
T1
X0217Y-0339
X0258Y-0339
X0263Y-0219
X0263Y-0238
X02715Y-0499
X0274Y-02615
X028Y-0388
X0281Y-0219
X0288Y-0262
X0288Y-0296
X0298Y-0384
X0298Y-0397
X0298Y-0413
X0298Y-043
X0298Y-0444
X0302Y-05
X0302Y-0606
X0303Y-0463
X03145Y-0323
X0321Y-0311
X03275Y-03235
X0331Y-022
X0331Y-0252
X0335Y-0626
X0336Y-0481
X034Y-0384
X034Y-0396
X0341Y-0554
X0341Y-0594
X03475Y-06045
X0353Y-0396
X0353Y-059225
X035325Y-054325
X0364Y-0288
X0364Y-0304
X0364Y-0322
X0382Y-049
X0388Y-0413
X039Y-0385
X0395Y-0598
X0401Y-0412
X0414Y-0412
X0415Y-0386
X0415Y-0396
X0427Y-0412
X0445Y-0563
X0445Y-0599
X0445Y-0624
X0446Y-0638
X0455Y-0287
X0455Y-0296
X0455Y-03075
X0455Y-03165
X0478Y-049
X0478Y-0503
X048Y-0564
X0483Y-0461
X05Y-0251
X05Y-0276
X05Y-0338
X05Y-0364
X0512Y-0563
X0514Y-0324
X0516Y-0461
X0537Y-054
X0537Y-0563
X05485Y-0513
X0563Y-0541
X0563Y-0563
X0566Y-0481
X05715Y-05255
X0572Y-0505
X0581Y-0563
X0581Y-0634
X0628Y-0532
X0629Y-0515
X0634Y-0562
X0649Y-0476
X0651Y-0318
X0675Y-0391
X0677Y-0511
X0679Y-0215
X0691Y-0595
X0694Y-0259
X0733Y-0391
X0737Y-0268
X0738Y-0504
T3
X06455Y-0228
X06455Y-0253
T4
X031Y-02146
X031Y-024
X031Y-02654
X031Y-02908
X0351Y-02146
X0351Y-024
X0351Y-02654
X03764Y-02146
X03764Y-024
X03764Y-02654
X04018Y-02146
X04018Y-024
X04018Y-02654
X04272Y-02146
X04272Y-024
X04272Y-02654
X04738Y-05846
X04738Y-061
X04738Y-06354
X0475Y-02146
X0475Y-024
X0475Y-02654
X04992Y-05846
X04992Y-061
X04992Y-06354
X05246Y-05846
X05246Y-061
X05246Y-06354
X0525Y-02146
X0525Y-024
X0525Y-02654
X055Y-05846
X055Y-061
X055Y-06354
X05504Y-02146
X05504Y-024
X05504Y-02654
X05758Y-02146
X05758Y-024
X05758Y-02654
X06012Y-02146
X06012Y-024
X06012Y-02654
T2
X06085Y-061725G85X06155Y-061725
G05
X06345Y-063875G85X06455Y-063875
G05
X06645Y-061725G85X06715Y-061725
G05
T0
M30
