G04 #@! TF.FileFunction,Legend,Top*
%FSLAX46Y46*%
G04 Gerber Fmt 4.6, Leading zero omitted, Abs format (unit mm)*
G04 Created by KiCad (PCBNEW 4.0.7) date 01/06/19 19:56:26*
%MOMM*%
%LPD*%
G01*
G04 APERTURE LIST*
%ADD10C,0.200000*%
%ADD11C,0.600000*%
%ADD12C,0.150000*%
%ADD13C,0.120000*%
%ADD14C,0.254000*%
%ADD15C,0.500000*%
%ADD16C,0.700000*%
%ADD17C,3.300000*%
%ADD18R,1.700000X0.530000*%
%ADD19C,1.300000*%
%ADD20R,1.300000X1.300000*%
%ADD21R,1.200000X1.100000*%
%ADD22R,2.200000X4.600000*%
%ADD23R,2.100000X1.700000*%
%ADD24R,0.550000X2.400000*%
%ADD25O,1.900000X1.200000*%
%ADD26O,2.300000X1.200000*%
%ADD27O,1.800000X1.800000*%
%ADD28C,1.800000*%
%ADD29R,2.100000X1.800000*%
%ADD30R,1.800000X2.100000*%
%ADD31R,1.550000X0.750000*%
%ADD32R,1.300000X3.100000*%
%ADD33R,3.100000X1.300000*%
%ADD34R,1.250000X1.250000*%
%ADD35R,1.900000X4.180000*%
%ADD36R,4.180000X1.900000*%
%ADD37R,1.300000X1.600000*%
%ADD38R,1.000000X2.600000*%
%ADD39R,2.600000X1.000000*%
%ADD40R,5.100000X5.100000*%
%ADD41R,0.400000X0.600000*%
G04 APERTURE END LIST*
D10*
D11*
X60388000Y-50600000D02*
G75*
G03X60388000Y-50600000I-300000J0D01*
G01*
D10*
X61200000Y-50276000D02*
X64400000Y-50276000D01*
X64400000Y-50276000D02*
X64400000Y-58924000D01*
X64400000Y-58924000D02*
X61200000Y-58924000D01*
X61200000Y-58924000D02*
X61200000Y-50276000D01*
D12*
X63050000Y-20250000D02*
X63050000Y-27850000D01*
X62550000Y-27850000D02*
X66550000Y-27850000D01*
X66550000Y-27850000D02*
X66550000Y-20250000D01*
X66550000Y-20250000D02*
X62550000Y-20250000D01*
X62550000Y-20250000D02*
X62550000Y-27850000D01*
X62800000Y-30050000D02*
X63600000Y-29500000D01*
X63600000Y-29500000D02*
X63600000Y-30600000D01*
X63600000Y-30600000D02*
X62800000Y-30050000D01*
X62800000Y-29500000D02*
X62800000Y-30600000D01*
D13*
X61100000Y-28950000D02*
X61100000Y-31150000D01*
X61100000Y-31150000D02*
X64450000Y-31150000D01*
X61100000Y-28950000D02*
X64450000Y-28950000D01*
D12*
X68900000Y-27000000D02*
X66900000Y-27000000D01*
X67900000Y-26000000D02*
X67900000Y-28000000D01*
X74500000Y-37100000D02*
X71700000Y-37100000D01*
X74500000Y-37100000D02*
X74500000Y-30500000D01*
X72900000Y-28900000D02*
X74500000Y-30500000D01*
X71700000Y-28900000D02*
X72900000Y-28900000D01*
X67900000Y-28900000D02*
X69100000Y-28900000D01*
X69100000Y-37100000D02*
X66300000Y-37100000D01*
X66300000Y-37100000D02*
X66300000Y-30500000D01*
X66300000Y-30500000D02*
X67900000Y-28900000D01*
X71900000Y-51600000D02*
X73900000Y-51600000D01*
X72900000Y-52600000D02*
X72900000Y-50600000D01*
X66300000Y-41500000D02*
X69100000Y-41500000D01*
X66300000Y-41500000D02*
X66300000Y-48100000D01*
X67900000Y-49700000D02*
X66300000Y-48100000D01*
X69100000Y-49700000D02*
X67900000Y-49700000D01*
X72900000Y-49700000D02*
X71700000Y-49700000D01*
X71700000Y-41500000D02*
X74500000Y-41500000D01*
X74500000Y-41500000D02*
X74500000Y-48100000D01*
X74500000Y-48100000D02*
X72900000Y-49700000D01*
D13*
X29000000Y-57100000D02*
X31000000Y-57100000D01*
X31000000Y-54700000D02*
X29000000Y-54700000D01*
X71800000Y-56000000D02*
X69800000Y-56000000D01*
X69800000Y-58400000D02*
X71800000Y-58400000D01*
X71800000Y-53000000D02*
X69800000Y-53000000D01*
X69800000Y-55400000D02*
X71800000Y-55400000D01*
X62300000Y-61725000D02*
X62300000Y-60975000D01*
X62000000Y-60975000D02*
X59850000Y-60975000D01*
X68150000Y-60975000D02*
X68150000Y-64525000D01*
X59850000Y-64525000D02*
X62750000Y-64525000D01*
X59850000Y-60975000D02*
X59850000Y-64525000D01*
X68150000Y-64525000D02*
X65250000Y-64525000D01*
X66000000Y-60975000D02*
X68150000Y-60975000D01*
X61450000Y-27870000D02*
X61450000Y-25210000D01*
X51170000Y-27870000D02*
X61450000Y-27870000D01*
X51170000Y-25210000D02*
X61450000Y-25210000D01*
X51170000Y-27870000D02*
X51170000Y-25210000D01*
X61450000Y-25330000D02*
X61450000Y-20130000D01*
X51170000Y-25330000D02*
X61450000Y-25330000D01*
X51170000Y-20130000D02*
X61450000Y-20130000D01*
X51170000Y-25330000D02*
X51170000Y-20130000D01*
X46170000Y-27870000D02*
X48830000Y-27870000D01*
X46170000Y-20130000D02*
X46170000Y-27870000D01*
X48830000Y-20130000D02*
X48830000Y-27870000D01*
X46170000Y-20130000D02*
X48830000Y-20130000D01*
X44050000Y-27870000D02*
X44050000Y-25210000D01*
X33770000Y-27870000D02*
X44050000Y-27870000D01*
X33770000Y-25210000D02*
X44050000Y-25210000D01*
X33770000Y-27870000D02*
X33770000Y-25210000D01*
X44050000Y-25330000D02*
X44050000Y-20130000D01*
X33770000Y-25330000D02*
X44050000Y-25330000D01*
X33770000Y-20130000D02*
X44050000Y-20130000D01*
X33770000Y-25330000D02*
X33770000Y-20130000D01*
X57750000Y-31150000D02*
X55750000Y-31150000D01*
X55750000Y-28850000D02*
X57750000Y-28850000D01*
X48600000Y-28850000D02*
X50600000Y-28850000D01*
X50600000Y-31150000D02*
X48600000Y-31150000D01*
X51000000Y-47850000D02*
X53000000Y-47850000D01*
X53000000Y-50150000D02*
X51000000Y-50150000D01*
X50550000Y-40600000D02*
X50550000Y-42600000D01*
X48250000Y-42600000D02*
X48250000Y-40600000D01*
X24150000Y-30050000D02*
X26150000Y-30050000D01*
X26150000Y-32350000D02*
X24150000Y-32350000D01*
X24150000Y-26825000D02*
X26150000Y-26825000D01*
X26150000Y-29125000D02*
X24150000Y-29125000D01*
D10*
X27900000Y-61150000D02*
X32100000Y-61150000D01*
X32100000Y-64350000D02*
X27900000Y-64350000D01*
X27900000Y-62250000D02*
X27900000Y-63250000D01*
X32100000Y-62250000D02*
X32100000Y-63250000D01*
D14*
X27497370Y-60861000D02*
G75*
G03X27497370Y-60861000I-53370J0D01*
G01*
D10*
X34900000Y-61150000D02*
X39100000Y-61150000D01*
X39100000Y-64350000D02*
X34900000Y-64350000D01*
X34900000Y-62250000D02*
X34900000Y-63250000D01*
X39100000Y-62250000D02*
X39100000Y-63250000D01*
D14*
X34497370Y-60861000D02*
G75*
G03X34497370Y-60861000I-53370J0D01*
G01*
D10*
X64700000Y-34100000D02*
X64100000Y-33500000D01*
X52505000Y-33505000D02*
X64695000Y-33505000D01*
X64695000Y-33505000D02*
X64695000Y-45695000D01*
X64695000Y-45695000D02*
X52505000Y-45695000D01*
X52505000Y-45695000D02*
X52505000Y-33505000D01*
D14*
X58713000Y-32870000D02*
G75*
G03X58713000Y-32870000I-102000J0D01*
G01*
D15*
X25154981Y-53381000D02*
G75*
G03X25154981Y-53381000I-283981J0D01*
G01*
D12*
X26500000Y-34600000D02*
X26500000Y-52600000D01*
X20200000Y-52600000D02*
X45700000Y-52600000D01*
X20200000Y-34600000D02*
X45700000Y-34600000D01*
X45700000Y-34600000D02*
X45700000Y-52600000D01*
X20200000Y-34600000D02*
X20200000Y-52600000D01*
D13*
X29670000Y-30410000D02*
X32330000Y-30410000D01*
X29670000Y-20130000D02*
X29670000Y-30410000D01*
X32330000Y-20130000D02*
X32330000Y-30410000D01*
X29670000Y-20130000D02*
X32330000Y-20130000D01*
X56330000Y-59790000D02*
X56330000Y-57130000D01*
X46050000Y-59790000D02*
X56330000Y-59790000D01*
X46050000Y-57130000D02*
X56330000Y-57130000D01*
X46050000Y-59790000D02*
X46050000Y-57130000D01*
X46050000Y-59670000D02*
X46050000Y-64870000D01*
X56330000Y-59670000D02*
X46050000Y-59670000D01*
X56330000Y-64870000D02*
X46050000Y-64870000D01*
X56330000Y-59670000D02*
X56330000Y-64870000D01*
X36300000Y-56450000D02*
X38300000Y-56450000D01*
X38300000Y-58750000D02*
X36300000Y-58750000D01*
X29000000Y-57750000D02*
X31000000Y-57750000D01*
X31000000Y-60050000D02*
X29000000Y-60050000D01*
D12*
X42200000Y-60150000D02*
X41580000Y-59050000D01*
X41580000Y-59050000D02*
X42820000Y-59050000D01*
X42820000Y-59050000D02*
X42200000Y-60150000D01*
X41580000Y-60150000D02*
X42820000Y-60150000D01*
D13*
X41000000Y-62900000D02*
X43400000Y-62900000D01*
X43400000Y-62900000D02*
X43400000Y-58000000D01*
X41000000Y-62900000D02*
X41000000Y-58000000D01*
D10*
X61823810Y-49652381D02*
X61823810Y-48652381D01*
X62871429Y-49557143D02*
X62823810Y-49604762D01*
X62680953Y-49652381D01*
X62585715Y-49652381D01*
X62442857Y-49604762D01*
X62347619Y-49509524D01*
X62300000Y-49414286D01*
X62252381Y-49223810D01*
X62252381Y-49080952D01*
X62300000Y-48890476D01*
X62347619Y-48795238D01*
X62442857Y-48700000D01*
X62585715Y-48652381D01*
X62680953Y-48652381D01*
X62823810Y-48700000D01*
X62871429Y-48747619D01*
X63252381Y-48747619D02*
X63300000Y-48700000D01*
X63395238Y-48652381D01*
X63633334Y-48652381D01*
X63728572Y-48700000D01*
X63776191Y-48747619D01*
X63823810Y-48842857D01*
X63823810Y-48938095D01*
X63776191Y-49080952D01*
X63204762Y-49652381D01*
X63823810Y-49652381D01*
D12*
X66972381Y-24383333D02*
X67686667Y-24383333D01*
X67829524Y-24430953D01*
X67924762Y-24526191D01*
X67972381Y-24669048D01*
X67972381Y-24764286D01*
X67972381Y-23383333D02*
X67972381Y-23954762D01*
X67972381Y-23669048D02*
X66972381Y-23669048D01*
X67115238Y-23764286D01*
X67210476Y-23859524D01*
X67258095Y-23954762D01*
X62461905Y-28652381D02*
X62461905Y-27652381D01*
X62700000Y-27652381D01*
X62842858Y-27700000D01*
X62938096Y-27795238D01*
X62985715Y-27890476D01*
X63033334Y-28080952D01*
X63033334Y-28223810D01*
X62985715Y-28414286D01*
X62938096Y-28509524D01*
X62842858Y-28604762D01*
X62700000Y-28652381D01*
X62461905Y-28652381D01*
X63985715Y-28652381D02*
X63414286Y-28652381D01*
X63700000Y-28652381D02*
X63700000Y-27652381D01*
X63604762Y-27795238D01*
X63509524Y-27890476D01*
X63414286Y-27938095D01*
X74157143Y-33166666D02*
X74204762Y-33214285D01*
X74252381Y-33357142D01*
X74252381Y-33452380D01*
X74204762Y-33595238D01*
X74109524Y-33690476D01*
X74014286Y-33738095D01*
X73823810Y-33785714D01*
X73680952Y-33785714D01*
X73490476Y-33738095D01*
X73395238Y-33690476D01*
X73300000Y-33595238D01*
X73252381Y-33452380D01*
X73252381Y-33357142D01*
X73300000Y-33214285D01*
X73347619Y-33166666D01*
X74252381Y-32214285D02*
X74252381Y-32785714D01*
X74252381Y-32500000D02*
X73252381Y-32500000D01*
X73395238Y-32595238D01*
X73490476Y-32690476D01*
X73538095Y-32785714D01*
X74157143Y-45766666D02*
X74204762Y-45814285D01*
X74252381Y-45957142D01*
X74252381Y-46052380D01*
X74204762Y-46195238D01*
X74109524Y-46290476D01*
X74014286Y-46338095D01*
X73823810Y-46385714D01*
X73680952Y-46385714D01*
X73490476Y-46338095D01*
X73395238Y-46290476D01*
X73300000Y-46195238D01*
X73252381Y-46052380D01*
X73252381Y-45957142D01*
X73300000Y-45814285D01*
X73347619Y-45766666D01*
X73347619Y-45385714D02*
X73300000Y-45338095D01*
X73252381Y-45242857D01*
X73252381Y-45004761D01*
X73300000Y-44909523D01*
X73347619Y-44861904D01*
X73442857Y-44814285D01*
X73538095Y-44814285D01*
X73680952Y-44861904D01*
X74252381Y-45433333D01*
X74252381Y-44814285D01*
X25533334Y-56257143D02*
X25485715Y-56304762D01*
X25342858Y-56352381D01*
X25247620Y-56352381D01*
X25104762Y-56304762D01*
X25009524Y-56209524D01*
X24961905Y-56114286D01*
X24914286Y-55923810D01*
X24914286Y-55780952D01*
X24961905Y-55590476D01*
X25009524Y-55495238D01*
X25104762Y-55400000D01*
X25247620Y-55352381D01*
X25342858Y-55352381D01*
X25485715Y-55400000D01*
X25533334Y-55447619D01*
X25866667Y-55352381D02*
X26485715Y-55352381D01*
X26152381Y-55733333D01*
X26295239Y-55733333D01*
X26390477Y-55780952D01*
X26438096Y-55828571D01*
X26485715Y-55923810D01*
X26485715Y-56161905D01*
X26438096Y-56257143D01*
X26390477Y-56304762D01*
X26295239Y-56352381D01*
X26009524Y-56352381D01*
X25914286Y-56304762D01*
X25866667Y-56257143D01*
X70633334Y-55597143D02*
X70585715Y-55644762D01*
X70442858Y-55692381D01*
X70347620Y-55692381D01*
X70204762Y-55644762D01*
X70109524Y-55549524D01*
X70061905Y-55454286D01*
X70014286Y-55263810D01*
X70014286Y-55120952D01*
X70061905Y-54930476D01*
X70109524Y-54835238D01*
X70204762Y-54740000D01*
X70347620Y-54692381D01*
X70442858Y-54692381D01*
X70585715Y-54740000D01*
X70633334Y-54787619D01*
X71490477Y-55025714D02*
X71490477Y-55692381D01*
X71252381Y-54644762D02*
X71014286Y-55359048D01*
X71633334Y-55359048D01*
X70633334Y-52597143D02*
X70585715Y-52644762D01*
X70442858Y-52692381D01*
X70347620Y-52692381D01*
X70204762Y-52644762D01*
X70109524Y-52549524D01*
X70061905Y-52454286D01*
X70014286Y-52263810D01*
X70014286Y-52120952D01*
X70061905Y-51930476D01*
X70109524Y-51835238D01*
X70204762Y-51740000D01*
X70347620Y-51692381D01*
X70442858Y-51692381D01*
X70585715Y-51740000D01*
X70633334Y-51787619D01*
X71538096Y-51692381D02*
X71061905Y-51692381D01*
X71014286Y-52168571D01*
X71061905Y-52120952D01*
X71157143Y-52073333D01*
X71395239Y-52073333D01*
X71490477Y-52120952D01*
X71538096Y-52168571D01*
X71585715Y-52263810D01*
X71585715Y-52501905D01*
X71538096Y-52597143D01*
X71490477Y-52644762D01*
X71395239Y-52692381D01*
X71157143Y-52692381D01*
X71061905Y-52644762D01*
X71014286Y-52597143D01*
X67066667Y-59452381D02*
X67066667Y-60166667D01*
X67019047Y-60309524D01*
X66923809Y-60404762D01*
X66780952Y-60452381D01*
X66685714Y-60452381D01*
X67495238Y-59547619D02*
X67542857Y-59500000D01*
X67638095Y-59452381D01*
X67876191Y-59452381D01*
X67971429Y-59500000D01*
X68019048Y-59547619D01*
X68066667Y-59642857D01*
X68066667Y-59738095D01*
X68019048Y-59880952D01*
X67447619Y-60452381D01*
X68066667Y-60452381D01*
X50052381Y-26733333D02*
X50766667Y-26733333D01*
X50909524Y-26780953D01*
X51004762Y-26876191D01*
X51052381Y-27019048D01*
X51052381Y-27114286D01*
X50052381Y-26352381D02*
X50052381Y-25733333D01*
X50433333Y-26066667D01*
X50433333Y-25923809D01*
X50480952Y-25828571D01*
X50528571Y-25780952D01*
X50623810Y-25733333D01*
X50861905Y-25733333D01*
X50957143Y-25780952D01*
X51004762Y-25828571D01*
X51052381Y-25923809D01*
X51052381Y-26209524D01*
X51004762Y-26304762D01*
X50957143Y-26352381D01*
X50002381Y-24333333D02*
X50716667Y-24333333D01*
X50859524Y-24380953D01*
X50954762Y-24476191D01*
X51002381Y-24619048D01*
X51002381Y-24714286D01*
X50335714Y-23428571D02*
X51002381Y-23428571D01*
X49954762Y-23666667D02*
X50669048Y-23904762D01*
X50669048Y-23285714D01*
X44902381Y-21733333D02*
X45616667Y-21733333D01*
X45759524Y-21780953D01*
X45854762Y-21876191D01*
X45902381Y-22019048D01*
X45902381Y-22114286D01*
X44902381Y-20780952D02*
X44902381Y-21257143D01*
X45378571Y-21304762D01*
X45330952Y-21257143D01*
X45283333Y-21161905D01*
X45283333Y-20923809D01*
X45330952Y-20828571D01*
X45378571Y-20780952D01*
X45473810Y-20733333D01*
X45711905Y-20733333D01*
X45807143Y-20780952D01*
X45854762Y-20828571D01*
X45902381Y-20923809D01*
X45902381Y-21161905D01*
X45854762Y-21257143D01*
X45807143Y-21304762D01*
X32652381Y-26883333D02*
X33366667Y-26883333D01*
X33509524Y-26930953D01*
X33604762Y-27026191D01*
X33652381Y-27169048D01*
X33652381Y-27264286D01*
X32652381Y-25978571D02*
X32652381Y-26169048D01*
X32700000Y-26264286D01*
X32747619Y-26311905D01*
X32890476Y-26407143D01*
X33080952Y-26454762D01*
X33461905Y-26454762D01*
X33557143Y-26407143D01*
X33604762Y-26359524D01*
X33652381Y-26264286D01*
X33652381Y-26073809D01*
X33604762Y-25978571D01*
X33557143Y-25930952D01*
X33461905Y-25883333D01*
X33223810Y-25883333D01*
X33128571Y-25930952D01*
X33080952Y-25978571D01*
X33033333Y-26073809D01*
X33033333Y-26264286D01*
X33080952Y-26359524D01*
X33128571Y-26407143D01*
X33223810Y-26454762D01*
X32727381Y-24383333D02*
X33441667Y-24383333D01*
X33584524Y-24430953D01*
X33679762Y-24526191D01*
X33727381Y-24669048D01*
X33727381Y-24764286D01*
X32727381Y-24002381D02*
X32727381Y-23335714D01*
X33727381Y-23764286D01*
X54658334Y-32052381D02*
X54325000Y-31576190D01*
X54086905Y-32052381D02*
X54086905Y-31052381D01*
X54467858Y-31052381D01*
X54563096Y-31100000D01*
X54610715Y-31147619D01*
X54658334Y-31242857D01*
X54658334Y-31385714D01*
X54610715Y-31480952D01*
X54563096Y-31528571D01*
X54467858Y-31576190D01*
X54086905Y-31576190D01*
X55610715Y-32052381D02*
X55039286Y-32052381D01*
X55325000Y-32052381D02*
X55325000Y-31052381D01*
X55229762Y-31195238D01*
X55134524Y-31290476D01*
X55039286Y-31338095D01*
X47408334Y-32152381D02*
X47075000Y-31676190D01*
X46836905Y-32152381D02*
X46836905Y-31152381D01*
X47217858Y-31152381D01*
X47313096Y-31200000D01*
X47360715Y-31247619D01*
X47408334Y-31342857D01*
X47408334Y-31485714D01*
X47360715Y-31580952D01*
X47313096Y-31628571D01*
X47217858Y-31676190D01*
X46836905Y-31676190D01*
X47789286Y-31247619D02*
X47836905Y-31200000D01*
X47932143Y-31152381D01*
X48170239Y-31152381D01*
X48265477Y-31200000D01*
X48313096Y-31247619D01*
X48360715Y-31342857D01*
X48360715Y-31438095D01*
X48313096Y-31580952D01*
X47741667Y-32152381D01*
X48360715Y-32152381D01*
X51833334Y-51552381D02*
X51500000Y-51076190D01*
X51261905Y-51552381D02*
X51261905Y-50552381D01*
X51642858Y-50552381D01*
X51738096Y-50600000D01*
X51785715Y-50647619D01*
X51833334Y-50742857D01*
X51833334Y-50885714D01*
X51785715Y-50980952D01*
X51738096Y-51028571D01*
X51642858Y-51076190D01*
X51261905Y-51076190D01*
X52166667Y-50552381D02*
X52785715Y-50552381D01*
X52452381Y-50933333D01*
X52595239Y-50933333D01*
X52690477Y-50980952D01*
X52738096Y-51028571D01*
X52785715Y-51123810D01*
X52785715Y-51361905D01*
X52738096Y-51457143D01*
X52690477Y-51504762D01*
X52595239Y-51552381D01*
X52309524Y-51552381D01*
X52214286Y-51504762D01*
X52166667Y-51457143D01*
X51952381Y-44566666D02*
X51476190Y-44900000D01*
X51952381Y-45138095D02*
X50952381Y-45138095D01*
X50952381Y-44757142D01*
X51000000Y-44661904D01*
X51047619Y-44614285D01*
X51142857Y-44566666D01*
X51285714Y-44566666D01*
X51380952Y-44614285D01*
X51428571Y-44661904D01*
X51476190Y-44757142D01*
X51476190Y-45138095D01*
X51285714Y-43709523D02*
X51952381Y-43709523D01*
X50904762Y-43947619D02*
X51619048Y-44185714D01*
X51619048Y-43566666D01*
X24933334Y-33802381D02*
X24600000Y-33326190D01*
X24361905Y-33802381D02*
X24361905Y-32802381D01*
X24742858Y-32802381D01*
X24838096Y-32850000D01*
X24885715Y-32897619D01*
X24933334Y-32992857D01*
X24933334Y-33135714D01*
X24885715Y-33230952D01*
X24838096Y-33278571D01*
X24742858Y-33326190D01*
X24361905Y-33326190D01*
X25266667Y-32802381D02*
X25933334Y-32802381D01*
X25504762Y-33802381D01*
X25033334Y-26477381D02*
X24700000Y-26001190D01*
X24461905Y-26477381D02*
X24461905Y-25477381D01*
X24842858Y-25477381D01*
X24938096Y-25525000D01*
X24985715Y-25572619D01*
X25033334Y-25667857D01*
X25033334Y-25810714D01*
X24985715Y-25905952D01*
X24938096Y-25953571D01*
X24842858Y-26001190D01*
X24461905Y-26001190D01*
X25604762Y-25905952D02*
X25509524Y-25858333D01*
X25461905Y-25810714D01*
X25414286Y-25715476D01*
X25414286Y-25667857D01*
X25461905Y-25572619D01*
X25509524Y-25525000D01*
X25604762Y-25477381D01*
X25795239Y-25477381D01*
X25890477Y-25525000D01*
X25938096Y-25572619D01*
X25985715Y-25667857D01*
X25985715Y-25715476D01*
X25938096Y-25810714D01*
X25890477Y-25858333D01*
X25795239Y-25905952D01*
X25604762Y-25905952D01*
X25509524Y-25953571D01*
X25461905Y-26001190D01*
X25414286Y-26096429D01*
X25414286Y-26286905D01*
X25461905Y-26382143D01*
X25509524Y-26429762D01*
X25604762Y-26477381D01*
X25795239Y-26477381D01*
X25890477Y-26429762D01*
X25938096Y-26382143D01*
X25985715Y-26286905D01*
X25985715Y-26096429D01*
X25938096Y-26001190D01*
X25890477Y-25953571D01*
X25795239Y-25905952D01*
X23966667Y-61404762D02*
X24109524Y-61452381D01*
X24347620Y-61452381D01*
X24442858Y-61404762D01*
X24490477Y-61357143D01*
X24538096Y-61261905D01*
X24538096Y-61166667D01*
X24490477Y-61071429D01*
X24442858Y-61023810D01*
X24347620Y-60976190D01*
X24157143Y-60928571D01*
X24061905Y-60880952D01*
X24014286Y-60833333D01*
X23966667Y-60738095D01*
X23966667Y-60642857D01*
X24014286Y-60547619D01*
X24061905Y-60500000D01*
X24157143Y-60452381D01*
X24395239Y-60452381D01*
X24538096Y-60500000D01*
X24871429Y-60452381D02*
X25109524Y-61452381D01*
X25300001Y-60738095D01*
X25490477Y-61452381D01*
X25728572Y-60452381D01*
X26633334Y-61452381D02*
X26061905Y-61452381D01*
X26347619Y-61452381D02*
X26347619Y-60452381D01*
X26252381Y-60595238D01*
X26157143Y-60690476D01*
X26061905Y-60738095D01*
X35666667Y-60404762D02*
X35809524Y-60452381D01*
X36047620Y-60452381D01*
X36142858Y-60404762D01*
X36190477Y-60357143D01*
X36238096Y-60261905D01*
X36238096Y-60166667D01*
X36190477Y-60071429D01*
X36142858Y-60023810D01*
X36047620Y-59976190D01*
X35857143Y-59928571D01*
X35761905Y-59880952D01*
X35714286Y-59833333D01*
X35666667Y-59738095D01*
X35666667Y-59642857D01*
X35714286Y-59547619D01*
X35761905Y-59500000D01*
X35857143Y-59452381D01*
X36095239Y-59452381D01*
X36238096Y-59500000D01*
X36571429Y-59452381D02*
X36809524Y-60452381D01*
X37000001Y-59738095D01*
X37190477Y-60452381D01*
X37428572Y-59452381D01*
X37761905Y-59547619D02*
X37809524Y-59500000D01*
X37904762Y-59452381D01*
X38142858Y-59452381D01*
X38238096Y-59500000D01*
X38285715Y-59547619D01*
X38333334Y-59642857D01*
X38333334Y-59738095D01*
X38285715Y-59880952D01*
X37714286Y-60452381D01*
X38333334Y-60452381D01*
D10*
X51027381Y-35386905D02*
X51836905Y-35386905D01*
X51932143Y-35339286D01*
X51979762Y-35291667D01*
X52027381Y-35196429D01*
X52027381Y-35005952D01*
X51979762Y-34910714D01*
X51932143Y-34863095D01*
X51836905Y-34815476D01*
X51027381Y-34815476D01*
X52027381Y-33815476D02*
X52027381Y-34386905D01*
X52027381Y-34101191D02*
X51027381Y-34101191D01*
X51170238Y-34196429D01*
X51265476Y-34291667D01*
X51313095Y-34386905D01*
D12*
X20777381Y-52036905D02*
X21586905Y-52036905D01*
X21682143Y-51989286D01*
X21729762Y-51941667D01*
X21777381Y-51846429D01*
X21777381Y-51655952D01*
X21729762Y-51560714D01*
X21682143Y-51513095D01*
X21586905Y-51465476D01*
X20777381Y-51465476D01*
X20872619Y-51036905D02*
X20825000Y-50989286D01*
X20777381Y-50894048D01*
X20777381Y-50655952D01*
X20825000Y-50560714D01*
X20872619Y-50513095D01*
X20967857Y-50465476D01*
X21063095Y-50465476D01*
X21205952Y-50513095D01*
X21777381Y-51084524D01*
X21777381Y-50465476D01*
X27090477Y-20452381D02*
X27090477Y-21166667D01*
X27042857Y-21309524D01*
X26947619Y-21404762D01*
X26804762Y-21452381D01*
X26709524Y-21452381D01*
X28090477Y-21452381D02*
X27519048Y-21452381D01*
X27804762Y-21452381D02*
X27804762Y-20452381D01*
X27709524Y-20595238D01*
X27614286Y-20690476D01*
X27519048Y-20738095D01*
X28709524Y-20452381D02*
X28804763Y-20452381D01*
X28900001Y-20500000D01*
X28947620Y-20547619D01*
X28995239Y-20642857D01*
X29042858Y-20833333D01*
X29042858Y-21071429D01*
X28995239Y-21261905D01*
X28947620Y-21357143D01*
X28900001Y-21404762D01*
X28804763Y-21452381D01*
X28709524Y-21452381D01*
X28614286Y-21404762D01*
X28566667Y-21357143D01*
X28519048Y-21261905D01*
X28471429Y-21071429D01*
X28471429Y-20833333D01*
X28519048Y-20642857D01*
X28566667Y-20547619D01*
X28614286Y-20500000D01*
X28709524Y-20452381D01*
X56652381Y-58933333D02*
X57366667Y-58933333D01*
X57509524Y-58980953D01*
X57604762Y-59076191D01*
X57652381Y-59219048D01*
X57652381Y-59314286D01*
X57080952Y-58314286D02*
X57033333Y-58409524D01*
X56985714Y-58457143D01*
X56890476Y-58504762D01*
X56842857Y-58504762D01*
X56747619Y-58457143D01*
X56700000Y-58409524D01*
X56652381Y-58314286D01*
X56652381Y-58123809D01*
X56700000Y-58028571D01*
X56747619Y-57980952D01*
X56842857Y-57933333D01*
X56890476Y-57933333D01*
X56985714Y-57980952D01*
X57033333Y-58028571D01*
X57080952Y-58123809D01*
X57080952Y-58314286D01*
X57128571Y-58409524D01*
X57176190Y-58457143D01*
X57271429Y-58504762D01*
X57461905Y-58504762D01*
X57557143Y-58457143D01*
X57604762Y-58409524D01*
X57652381Y-58314286D01*
X57652381Y-58123809D01*
X57604762Y-58028571D01*
X57557143Y-57980952D01*
X57461905Y-57933333D01*
X57271429Y-57933333D01*
X57176190Y-57980952D01*
X57128571Y-58028571D01*
X57080952Y-58123809D01*
X56782381Y-61333333D02*
X57496667Y-61333333D01*
X57639524Y-61380953D01*
X57734762Y-61476191D01*
X57782381Y-61619048D01*
X57782381Y-61714286D01*
X57782381Y-60809524D02*
X57782381Y-60619048D01*
X57734762Y-60523809D01*
X57687143Y-60476190D01*
X57544286Y-60380952D01*
X57353810Y-60333333D01*
X56972857Y-60333333D01*
X56877619Y-60380952D01*
X56830000Y-60428571D01*
X56782381Y-60523809D01*
X56782381Y-60714286D01*
X56830000Y-60809524D01*
X56877619Y-60857143D01*
X56972857Y-60904762D01*
X57210952Y-60904762D01*
X57306190Y-60857143D01*
X57353810Y-60809524D01*
X57401429Y-60714286D01*
X57401429Y-60523809D01*
X57353810Y-60428571D01*
X57306190Y-60380952D01*
X57210952Y-60333333D01*
X37083334Y-56027381D02*
X36750000Y-55551190D01*
X36511905Y-56027381D02*
X36511905Y-55027381D01*
X36892858Y-55027381D01*
X36988096Y-55075000D01*
X37035715Y-55122619D01*
X37083334Y-55217857D01*
X37083334Y-55360714D01*
X37035715Y-55455952D01*
X36988096Y-55503571D01*
X36892858Y-55551190D01*
X36511905Y-55551190D01*
X37988096Y-55027381D02*
X37511905Y-55027381D01*
X37464286Y-55503571D01*
X37511905Y-55455952D01*
X37607143Y-55408333D01*
X37845239Y-55408333D01*
X37940477Y-55455952D01*
X37988096Y-55503571D01*
X38035715Y-55598810D01*
X38035715Y-55836905D01*
X37988096Y-55932143D01*
X37940477Y-55979762D01*
X37845239Y-56027381D01*
X37607143Y-56027381D01*
X37511905Y-55979762D01*
X37464286Y-55932143D01*
X25533334Y-59352381D02*
X25200000Y-58876190D01*
X24961905Y-59352381D02*
X24961905Y-58352381D01*
X25342858Y-58352381D01*
X25438096Y-58400000D01*
X25485715Y-58447619D01*
X25533334Y-58542857D01*
X25533334Y-58685714D01*
X25485715Y-58780952D01*
X25438096Y-58828571D01*
X25342858Y-58876190D01*
X24961905Y-58876190D01*
X26390477Y-58352381D02*
X26200000Y-58352381D01*
X26104762Y-58400000D01*
X26057143Y-58447619D01*
X25961905Y-58590476D01*
X25914286Y-58780952D01*
X25914286Y-59161905D01*
X25961905Y-59257143D01*
X26009524Y-59304762D01*
X26104762Y-59352381D01*
X26295239Y-59352381D01*
X26390477Y-59304762D01*
X26438096Y-59257143D01*
X26485715Y-59161905D01*
X26485715Y-58923810D01*
X26438096Y-58828571D01*
X26390477Y-58780952D01*
X26295239Y-58733333D01*
X26104762Y-58733333D01*
X26009524Y-58780952D01*
X25961905Y-58828571D01*
X25914286Y-58923810D01*
X41533334Y-64352381D02*
X41057143Y-64352381D01*
X41057143Y-63352381D01*
X41866667Y-64352381D02*
X41866667Y-63352381D01*
X42104762Y-63352381D01*
X42247620Y-63400000D01*
X42342858Y-63495238D01*
X42390477Y-63590476D01*
X42438096Y-63780952D01*
X42438096Y-63923810D01*
X42390477Y-64114286D01*
X42342858Y-64209524D01*
X42247620Y-64304762D01*
X42104762Y-64352381D01*
X41866667Y-64352381D01*
X43390477Y-64352381D02*
X42819048Y-64352381D01*
X43104762Y-64352381D02*
X43104762Y-63352381D01*
X43009524Y-63495238D01*
X42914286Y-63590476D01*
X42819048Y-63638095D01*
%LPC*%
D16*
X51600000Y-46100000D03*
X50000000Y-36400000D03*
X50000000Y-33800000D03*
X50000000Y-27600000D03*
X50000000Y-25100000D03*
X73700000Y-26800000D03*
X69400000Y-25900000D03*
X67900000Y-21500000D03*
X65100000Y-31800000D03*
X73800000Y-50400000D03*
X73300000Y-39100000D03*
X67500000Y-39100000D03*
X64900000Y-47600000D03*
X67700000Y-51100000D03*
X62900000Y-51500000D03*
X69100000Y-59500000D03*
X58100000Y-63400000D03*
X58100000Y-56300000D03*
X56300000Y-56300000D03*
X56300000Y-54100000D03*
X57200000Y-50500000D03*
X47800000Y-50300000D03*
X53700000Y-54000000D03*
X53700000Y-56300000D03*
X51200000Y-56300000D03*
X48000000Y-56400000D03*
X44500000Y-56300000D03*
X44600000Y-63800000D03*
X44500000Y-62400000D03*
X44500000Y-59900000D03*
X39500000Y-59800000D03*
X33500000Y-62600000D03*
X34100000Y-59400000D03*
X34100000Y-55400000D03*
X30300000Y-46300000D03*
X29800000Y-44400000D03*
X29800000Y-43000000D03*
X29800000Y-41300000D03*
X29800000Y-39700000D03*
X29800000Y-38400000D03*
X34000000Y-39600000D03*
X35300000Y-39600000D03*
X41500000Y-39600000D03*
X41500000Y-38600000D03*
X39000000Y-38500000D03*
X34000000Y-38400000D03*
X36400000Y-32200000D03*
X36400000Y-30400000D03*
X36400000Y-28800000D03*
X32100000Y-31100000D03*
X28800000Y-29600000D03*
X28800000Y-26200000D03*
X33100000Y-25200000D03*
X33100000Y-22000000D03*
X26300000Y-23800000D03*
X28100000Y-21900000D03*
X26300000Y-21900000D03*
X25800000Y-33900000D03*
D17*
X22500000Y-62500000D03*
D18*
X60050000Y-51742000D03*
X60050000Y-52377000D03*
X60050000Y-53012000D03*
X60050000Y-53647000D03*
X60050000Y-54282000D03*
X60050000Y-54917000D03*
X60050000Y-55552000D03*
X60050000Y-56187000D03*
X60050000Y-56822000D03*
X60050000Y-57457000D03*
X65550000Y-57457000D03*
X65550000Y-56822000D03*
X65550000Y-56187000D03*
X65550000Y-55552000D03*
X65550000Y-54917000D03*
X65550000Y-54282000D03*
X65550000Y-53647000D03*
X65550000Y-53012000D03*
X65550000Y-52377000D03*
X65550000Y-51742000D03*
D17*
X22250000Y-22500000D03*
D19*
X64550000Y-22800000D03*
D20*
X64550000Y-25300000D03*
D21*
X61900000Y-30050000D03*
X64500000Y-30050000D03*
D17*
X72500000Y-62500000D03*
D22*
X70400000Y-36700000D03*
X70400000Y-29300000D03*
X70400000Y-41900000D03*
X70400000Y-49300000D03*
D23*
X32000000Y-55900000D03*
X28000000Y-55900000D03*
X68800000Y-57200000D03*
X72800000Y-57200000D03*
X68800000Y-54200000D03*
X72800000Y-54200000D03*
D24*
X64000000Y-61575000D03*
X64650000Y-61575000D03*
X63350000Y-61575000D03*
X65300000Y-61575000D03*
X62700000Y-61575000D03*
D25*
X61200000Y-61725000D03*
X66800000Y-61725000D03*
D26*
X64000000Y-63875000D03*
D27*
X60120000Y-26540000D03*
D28*
X52500000Y-26540000D03*
D27*
X55040000Y-26540000D03*
X57580000Y-26540000D03*
X60120000Y-21460000D03*
X60120000Y-24000000D03*
X57580000Y-21460000D03*
D28*
X52500000Y-21460000D03*
D27*
X55040000Y-21460000D03*
D28*
X52500000Y-24000000D03*
D27*
X55040000Y-24000000D03*
X57580000Y-24000000D03*
D28*
X47500000Y-21460000D03*
D27*
X47500000Y-24000000D03*
X47500000Y-26540000D03*
X42720000Y-26540000D03*
D28*
X35100000Y-26540000D03*
D27*
X37640000Y-26540000D03*
X40180000Y-26540000D03*
X42720000Y-21460000D03*
X42720000Y-24000000D03*
X40180000Y-21460000D03*
D28*
X35100000Y-21460000D03*
D27*
X37640000Y-21460000D03*
D28*
X35100000Y-24000000D03*
D27*
X37640000Y-24000000D03*
X40180000Y-24000000D03*
D29*
X54750000Y-30000000D03*
X58750000Y-30000000D03*
X51600000Y-30000000D03*
X47600000Y-30000000D03*
X54000000Y-49000000D03*
X50000000Y-49000000D03*
D30*
X49400000Y-43600000D03*
X49400000Y-39600000D03*
D29*
X27150000Y-31200000D03*
X23150000Y-31200000D03*
X27150000Y-27975000D03*
X23150000Y-27975000D03*
D31*
X27725000Y-61675000D03*
X32275000Y-61675000D03*
X27725000Y-63825000D03*
X32275000Y-63825000D03*
X34725000Y-61675000D03*
X39275000Y-61675000D03*
X34725000Y-63825000D03*
X39275000Y-63825000D03*
D32*
X58600000Y-34000000D03*
X56310000Y-34000000D03*
X54020000Y-34000000D03*
D33*
X53120000Y-37310000D03*
X53120000Y-39600000D03*
X53120000Y-41890000D03*
D32*
X54020000Y-45200000D03*
X58600000Y-45200000D03*
D33*
X64210000Y-41890000D03*
X64210000Y-39600000D03*
X64210000Y-37310000D03*
D32*
X63180000Y-45200000D03*
D34*
X58600000Y-35030000D03*
D35*
X63180000Y-36170000D03*
X63180000Y-40740000D03*
D36*
X62040000Y-44170000D03*
D34*
X58600000Y-44170000D03*
X54020000Y-44170000D03*
X54020000Y-39600000D03*
X54020000Y-37310000D03*
X54020000Y-35030000D03*
X56310000Y-35030000D03*
X56310000Y-44170000D03*
X54020000Y-41890000D03*
D32*
X63180000Y-34000000D03*
D37*
X56310000Y-46000000D03*
D38*
X27690000Y-34850000D03*
X28960000Y-34850000D03*
X30225000Y-34850000D03*
X31495000Y-34850000D03*
X32765000Y-34850000D03*
X34035000Y-34850000D03*
X35305000Y-34850000D03*
X36575000Y-34850000D03*
X37845000Y-34850000D03*
X39115000Y-34850000D03*
X40385000Y-34850000D03*
X41655000Y-34850000D03*
X42925000Y-34850000D03*
X44195000Y-34850000D03*
D39*
X45450000Y-37885000D03*
X45450000Y-39155000D03*
X45450000Y-40425000D03*
X45450000Y-41695000D03*
X45450000Y-42965000D03*
X45450000Y-44235000D03*
X45450000Y-45505000D03*
X45450000Y-46770000D03*
X45450000Y-48045000D03*
X45450000Y-49315000D03*
D38*
X44195000Y-52350000D03*
X42925000Y-52350000D03*
X41655000Y-52350000D03*
X40385000Y-52350000D03*
X39115000Y-52350000D03*
X37845000Y-52350000D03*
X36575000Y-52350000D03*
X35305000Y-52350000D03*
X34035000Y-52350000D03*
X32765000Y-52350000D03*
X31495000Y-52350000D03*
X30225000Y-52350000D03*
X28960000Y-52350000D03*
X27690000Y-52350000D03*
D40*
X35190000Y-44600000D03*
D17*
X72500000Y-22500000D03*
D27*
X31000000Y-29080000D03*
D28*
X31000000Y-21460000D03*
D27*
X31000000Y-24000000D03*
X31000000Y-26540000D03*
D41*
X20600000Y-31200000D03*
X21100000Y-31200000D03*
X20550000Y-27950000D03*
X21050000Y-27950000D03*
D27*
X55000000Y-58460000D03*
D28*
X47380000Y-58460000D03*
D27*
X49920000Y-58460000D03*
X52460000Y-58460000D03*
X47380000Y-63540000D03*
X47380000Y-61000000D03*
X49920000Y-63540000D03*
D28*
X55000000Y-63540000D03*
D27*
X52460000Y-63540000D03*
D28*
X55000000Y-61000000D03*
D27*
X52460000Y-61000000D03*
X49920000Y-61000000D03*
D29*
X39300000Y-57600000D03*
X35300000Y-57600000D03*
X32000000Y-58900000D03*
X28000000Y-58900000D03*
D30*
X42200000Y-61600000D03*
X42200000Y-57600000D03*
D16*
X21700000Y-33900000D03*
X28000000Y-38800000D03*
X33600000Y-48100000D03*
X35300000Y-59225000D03*
X27400000Y-26150000D03*
X56600000Y-48100000D03*
X62800000Y-53200000D03*
X63400000Y-56200000D03*
X30200000Y-50000000D03*
X30200000Y-60600000D03*
X34750000Y-60450000D03*
X27150000Y-49900000D03*
X31450000Y-32300000D03*
X57150000Y-52550000D03*
X32750000Y-32350000D03*
X54850000Y-51300000D03*
X45500000Y-31650000D03*
X45500000Y-28700000D03*
X45500000Y-29600000D03*
X45500000Y-30750000D03*
X42700000Y-41200000D03*
X38800000Y-41300000D03*
X40100000Y-41200000D03*
X41400000Y-41200000D03*
X35325000Y-54325000D03*
X51400000Y-32400000D03*
X48300000Y-46100000D03*
X47800000Y-49000000D03*
X38200000Y-49000000D03*
M02*
